<?xml version="1.0" encoding="UTF-8"?>
<svg xmlns="http://www.w3.org/2000/svg" xmlns:xlink="http://www.w3.org/1999/xlink" width="22px" height="23px" viewBox="0 0 22 23" version="1.1">
<g id="surface1">
<path style=" stroke:none;fill-rule:nonzero;fill:rgb(99.607843%,99.215686%,99.607843%);fill-opacity:1;" d="M 0 0 C 7.261719 0 14.519531 0 22 0 C 22 7.589844 22 15.179688 22 23 C 14.738281 23 7.480469 23 0 23 C 0 15.410156 0 7.820312 0 0 Z M 0 0 "/>
<path style=" stroke:none;fill-rule:nonzero;fill:rgb(55.686277%,13.333334%,30.19608%);fill-opacity:1;" d="M 15.125 2.226562 C 16.074219 2.226562 17.023438 2.226562 18 2.226562 C 18 7.9375 18 13.652344 18 19.539062 C 17.050781 19.539062 16.101562 19.539062 15.125 19.539062 C 15.125 13.824219 15.125 8.113281 15.125 2.226562 Z M 15.125 2.226562 "/>
<path style=" stroke:none;fill-rule:nonzero;fill:rgb(29.411766%,34.509805%,40.784314%);fill-opacity:1;" d="M 2.625 2.347656 C 3.574219 2.347656 4.523438 2.347656 5.5 2.347656 C 5.5 8.023438 5.5 13.695312 5.5 19.539062 C 4.550781 19.539062 3.601562 19.539062 2.625 19.539062 C 2.625 13.867188 2.625 8.195312 2.625 2.347656 Z M 2.625 2.347656 "/>
<path style=" stroke:none;fill-rule:nonzero;fill:rgb(88.627452%,60.784316%,22.352941%);fill-opacity:1;" d="M 8.875 2.347656 C 9.78125 2.347656 10.691406 2.347656 11.625 2.347656 C 11.625 8.023438 11.625 13.695312 11.625 19.539062 C 10.71875 19.539062 9.808594 19.539062 8.875 19.539062 C 8.875 13.867188 8.875 8.195312 8.875 2.347656 Z M 8.875 2.347656 "/>
<path style=" stroke:none;fill-rule:nonzero;fill:rgb(96.078432%,87.843138%,69.803923%);fill-opacity:1;" d="M 9.164062 2.210938 C 9.289062 2.210938 9.414062 2.214844 9.542969 2.214844 C 9.679688 2.214844 9.8125 2.214844 9.953125 2.214844 C 10.164062 2.214844 10.164062 2.214844 10.382812 2.21875 C 10.597656 2.21875 10.597656 2.21875 10.816406 2.21875 C 11.167969 2.222656 11.523438 2.222656 11.875 2.226562 C 11.878906 4.496094 11.878906 6.769531 11.882812 9.039062 C 11.882812 10.09375 11.882812 11.148438 11.882812 12.203125 C 11.886719 13.121094 11.886719 14.039062 11.886719 14.957031 C 11.886719 15.445312 11.886719 15.933594 11.886719 16.417969 C 11.890625 16.875 11.890625 17.335938 11.890625 17.792969 C 11.890625 18.042969 11.890625 18.289062 11.890625 18.539062 C 11.890625 18.6875 11.890625 18.832031 11.890625 18.984375 C 11.890625 19.113281 11.890625 19.242188 11.890625 19.375 C 11.875 19.660156 11.875 19.660156 11.75 19.785156 C 11.527344 19.796875 11.304688 19.796875 11.082031 19.796875 C 10.945312 19.796875 10.8125 19.796875 10.671875 19.796875 C 10.53125 19.792969 10.386719 19.792969 10.242188 19.792969 C 10.101562 19.792969 9.957031 19.792969 9.808594 19.789062 C 9.457031 19.789062 9.101562 19.789062 8.75 19.785156 C 8.746094 17.515625 8.746094 15.242188 8.742188 12.972656 C 8.742188 11.917969 8.742188 10.863281 8.742188 9.808594 C 8.738281 8.890625 8.738281 7.96875 8.738281 7.050781 C 8.738281 6.566406 8.738281 6.078125 8.738281 5.589844 C 8.734375 5.132812 8.734375 4.675781 8.734375 4.21875 C 8.734375 3.96875 8.734375 3.71875 8.734375 3.472656 C 8.734375 3.324219 8.734375 3.175781 8.734375 3.027344 C 8.734375 2.898438 8.734375 2.769531 8.734375 2.636719 C 8.753906 2.25 8.773438 2.230469 9.164062 2.210938 Z M 8.875 2.347656 C 8.875 8.023438 8.875 13.695312 8.875 19.539062 C 9.78125 19.539062 10.691406 19.539062 11.625 19.539062 C 11.625 13.867188 11.625 8.195312 11.625 2.347656 C 10.71875 2.347656 9.808594 2.347656 8.875 2.347656 Z M 8.875 2.347656 "/>
</g>
</svg>
